<?xml version="1.0" encoding="UTF-8" standalone="no"?>
<svg width="194px" height="56px" viewBox="0 0 194 56" version="1.1" xmlns="http://www.w3.org/2000/svg" xmlns:xlink="http://www.w3.org/1999/xlink" xmlns:sketch="http://www.bohemiancoding.com/sketch/ns">
    <!-- Generator: Sketch 3.4.3 (16044) - http://www.bohemiancoding.com/sketch -->
    <title>Fill 1 + Fill 2 + PRESS Copy</title>
    <desc>Created with Sketch.</desc>
    <defs></defs>
    <g id="All" stroke="none" stroke-width="1" fill="none" fill-rule="evenodd" sketch:type="MSPage">
        <g id="Desktop-HD" sketch:type="MSArtboardGroup" transform="translate(-43.000000, -32.000000)" fill="#171717">
            <g id="Fill-1-+-Fill-2-+-PRESS-Copy" sketch:type="MSLayerGroup" transform="translate(43.000000, 32.000000)">
                <path d="M27.4230611,55.686615 C12.3455471,55.686615 0.0791150124,43.2189867 0.0791150124,27.894291 C0.0791150124,12.5694617 12.3455471,0.101966875 27.4230611,0.101966875 C42.5005752,0.101966875 54.7668758,12.5694617 54.7668758,27.894291 C54.7668758,43.2189867 42.5005752,55.686615 27.4230611,55.686615 L27.4230611,55.686615 Z M27.4230611,2.75797156 C13.7880379,2.75797156 2.69519119,14.0340425 2.69519119,27.894291 C2.69519119,41.7544059 13.7880379,53.0304768 27.4230611,53.0304768 C41.0579529,53.0304768 52.1507996,41.7544059 52.1507996,27.894291 C52.1507996,14.0340425 41.0579529,2.75797156 27.4230611,2.75797156 L27.4230611,2.75797156 Z" id="Fill-1" sketch:type="MSShapeGroup"></path>
                <path d="M35.532963,39.3894483 C34.2949456,39.3894483 33.0368095,39.3826394 31.8200941,39.376231 C30.6290201,39.3698226 29.3974458,39.3632807 28.1863847,39.3630137 L26.921148,39.3662179 L23.1868455,39.3363121 C19.9273684,39.3098776 16.5570418,39.282642 13.2423372,39.2628828 C11.999586,39.2550059 11.0545375,38.9638253 10.2683339,38.3466186 C9.21532876,37.5211397 8.76219991,36.4063494 8.95799471,35.1232057 C9.06937025,34.3922503 9.43900032,33.7165672 10.0568913,33.114981 C10.5118611,32.671735 11.0148262,32.2936408 11.5013546,31.9279629 C11.6767678,31.7961907 11.852181,31.6642849 12.0252273,31.5295755 C13.2487804,30.5772642 14.5137542,29.5927775 15.7938497,28.6391311 C16.8314701,27.8661208 17.8931539,27.0912414 18.9198602,26.341862 C19.6045503,25.8421422 20.2892404,25.3424224 20.971695,24.8397654 C21.3926078,24.5296267 21.8158875,24.2228258 22.2392986,23.9158913 C23.1264897,23.2726506 24.0439244,22.6073811 24.9212534,21.9234205 C25.1793764,21.7222242 25.3305947,21.5357137 25.4119896,21.318363 C25.5307288,21.0010149 25.4315822,20.7183788 25.1935778,20.2759339 C24.9780589,19.8762115 24.6576076,19.5412403 24.3434681,19.2387116 C24.2398507,19.1389813 24.1341294,19.0409865 24.0284081,18.9429918 C23.6240636,18.5682353 23.2059122,18.1805286 22.8832255,17.6829449 C22.2673069,16.7337043 22.0675673,15.5996888 22.2897924,14.3121393 C22.5540956,12.7755978 23.3638366,11.6102079 24.6965299,10.8486793 C25.7750449,10.2325407 26.9328509,10.0635198 28.112485,10.3506951 C29.7211845,10.7425406 30.8755716,11.7545299 31.5432989,13.3584929 C31.743696,13.8392546 31.8484969,14.3863697 31.8729548,15.0800763 C31.8830798,15.3667176 31.7588178,15.6105029 31.5035877,15.8046233 C31.1960229,16.0394636 30.7670889,16.0745761 30.5388151,16.0745761 C30.1303943,16.0745761 29.7606327,15.969372 29.5244692,15.7857987 C29.3007976,15.6119715 29.1848198,15.3848747 29.1700925,15.091558 C29.1340631,14.3811629 28.8449074,13.8251028 28.2859258,13.3916029 C27.944567,13.1265898 27.5266785,12.9866736 27.0771,12.9866736 C26.2017434,12.9866736 25.4063353,13.5078882 25.097587,14.2835686 C24.7610935,15.1290737 24.9142842,15.8764505 25.594372,16.7071362 C25.7797787,16.9335655 25.9799128,17.1585262 26.1734722,17.3760104 C26.5240356,17.7701255 26.886565,18.1777249 27.1987321,18.6324526 C27.7734931,19.4695466 28.1061733,20.2336119 28.2458201,21.0369285 C28.3781032,21.7979231 28.1690275,22.5041795 27.6246417,23.1362056 C27.0905124,23.7555484 26.4455336,24.2257629 25.8218568,24.6806241 C25.7349392,24.7440403 25.6481531,24.807323 25.5614984,24.8711398 C24.569375,25.6020951 23.5744903,26.3295792 22.579474,27.0570634 L21.5713083,27.7944271 C21.1296195,28.1176496 20.6868787,28.4396704 20.2442694,28.7616913 C18.924594,29.7213456 17.5599477,30.7137092 16.2475046,31.7271671 L16.1837299,31.7764315 C14.8336794,32.8189941 13.4377375,33.8970698 12.0692779,34.9621953 C11.8678288,35.1192005 11.7436983,35.2681952 11.6791347,35.4306742 C11.4930705,35.8994202 11.8509976,36.1652343 12.0807179,36.2820536 C12.4041935,36.4462682 12.7711936,36.5206321 13.2706084,36.5233023 L16.1924085,36.5370536 C18.9107871,36.5498703 21.6291658,36.5625536 24.3476759,36.5736347 L26.4406683,36.5821792 C29.9764146,36.5965981 33.6326095,36.6114174 37.2287116,36.6167577 L37.345084,36.6167577 C38.1441739,36.6167577 38.9585172,36.6024724 39.7460357,36.5887211 C40.2534716,36.5797761 40.7609076,36.5709646 41.2683435,36.5656242 C41.5336987,36.5629541 41.7682843,36.5056792 41.9655255,36.3954018 C42.3103032,36.2023494 42.2642802,35.7883417 42.1198996,35.4924883 C41.9129278,35.068601 41.5678872,34.7731482 41.2258709,34.5169467 L40.3217171,33.840062 C38.4947373,32.4721408 36.6680206,31.1043531 34.8385424,29.7391021 C33.9192668,29.0530054 32.9977558,28.3695788 32.0762447,27.6860188 C31.5559224,27.3001811 31.0356,26.91421 30.5156721,26.5278384 C30.1482775,26.2545478 29.923028,25.949349 29.8270372,25.5946187 C29.6810787,25.0575167 29.8421591,24.5660744 30.2691206,24.2461896 C30.7298761,23.9002708 31.2722895,23.842729 31.7409346,24.0913205 C32.238377,24.3547315 32.6773045,24.6978466 33.1017676,25.0296135 C33.2591661,25.1527078 33.4165646,25.2756685 33.576593,25.3943569 C35.7079817,26.9720189 37.8901272,28.5950735 40.2472914,30.3556412 C41.3564446,31.1835233 42.279928,31.8760284 43.2237931,32.6193999 C44.0986237,33.3084338 44.6491897,34.182109 44.8599748,35.2158601 C45.1737198,36.7553389 44.4641774,38.2335375 43.0946658,38.8944012 C42.3675031,39.2459273 41.6065465,39.3090766 41.0249478,39.3248305 C39.4166428,39.3688881 37.6714524,39.3894483 35.532963,39.3894483" id="Fill-2" sketch:type="MSShapeGroup"></path>
                <path d="M75.7201771,18.5296518 L81.7054451,18.5296518 C83.0106503,18.5296518 84.0781056,18.7331605 84.9078432,19.140184 C85.7375807,19.5472075 86.3948349,20.0488801 86.8796254,20.6452168 C87.3644159,21.2415536 87.700035,21.8804762 87.8864929,22.562004 C88.0729508,23.2435317 88.1661783,23.868256 88.1661783,24.4361958 C88.1661783,25.49635 87.9797232,26.40504 87.6068075,27.162293 C87.2338917,27.9195461 86.7491085,28.5395377 86.1524433,29.0222865 C85.5557781,29.5050353 84.8845398,29.8599923 84.1387083,30.0871682 C83.3928768,30.3143441 82.6563792,30.4279303 81.9291935,30.4279303 L79.1043707,30.4279303 L79.1043707,37.4703482 L75.7201771,37.4703482 L75.7201771,18.5296518 Z M81.649508,27.4178647 C82.5445059,27.4178647 83.2576965,27.1528301 83.7891015,26.622753 C84.3205065,26.0926758 84.586205,25.4016928 84.586205,24.5497832 C84.586205,23.6600109 84.3065223,22.9358986 83.7471487,22.3774245 C83.1877751,21.8189504 82.4885685,21.5397175 81.649508,21.5397175 L79.1043707,21.5397175 L79.1043707,27.4178647 L81.649508,27.4178647 Z M101.419102,18.5296518 L107.60015,18.5296518 C108.774834,18.5296518 109.772369,18.7094967 110.592784,19.0691919 C111.413198,19.4288871 112.075114,19.8879648 112.57855,20.4464389 C113.081986,21.004913 113.450235,21.6154391 113.683308,22.2780355 C113.91638,22.9406319 114.032914,23.5748218 114.032914,24.1806242 C114.032914,25.3732977 113.776539,26.4287033 113.263779,27.3468725 C112.75102,28.2650418 111.963248,28.9986197 110.900438,29.5476281 L115.207593,37.4703482 L111.23606,37.4703482 L107.460307,30.0019777 L104.803296,30.0019777 L104.803296,37.4703482 L101.419102,37.4703482 L101.419102,18.5296518 Z M107.628118,27.0487057 C108.523116,27.0487057 109.217661,26.7836711 109.711775,26.253594 C110.205888,25.7235168 110.452941,25.0798614 110.452941,24.3226084 C110.452941,23.5085614 110.191904,22.845975 109.669822,22.3348292 C109.14774,21.8236834 108.467179,21.5681143 107.628118,21.5681143 L104.803296,21.5681143 L104.803296,27.0487057 L107.628118,27.0487057 Z M127.901146,18.5296518 L139.983556,18.5296518 L139.983556,21.6817017 L131.425182,21.6817017 L131.425182,26.1400066 L137.718104,26.1400066 L137.718104,29.3204533 L131.425182,29.3204533 L131.425182,34.2615046 L140.626833,34.2615046 L140.626833,37.4703482 L127.901146,37.4703482 L127.901146,18.5296518 Z M155.250215,32.1317411 C155.473964,32.3967797 155.739663,32.6760125 156.047318,32.9694481 C156.354974,33.2628836 156.699916,33.5373837 157.082154,33.7929566 C157.464393,34.0485295 157.89324,34.2615037 158.368707,34.4318857 C158.844175,34.6022676 159.380233,34.6874573 159.976898,34.6874573 C161.077,34.6874573 161.892741,34.4318882 162.424146,33.9207424 C162.955551,33.4095966 163.221249,32.7943378 163.221249,32.0749474 C163.221249,31.6773896 163.146667,31.3224326 162.997501,31.0100657 C162.848335,30.6976988 162.59662,30.4231987 162.24235,30.1865572 C161.88808,29.9499156 161.426604,29.7369414 160.857907,29.5476281 C160.289211,29.3583149 159.585343,29.17847 158.746282,29.008088 C157.888576,28.8377061 157.147417,28.5726715 156.522783,28.2129763 C155.89815,27.8532812 155.380737,27.4273327 154.970529,26.9351183 C154.560322,26.4429038 154.252671,25.8986364 154.047567,25.3022996 C153.842464,24.7059629 153.739913,24.0954368 153.739913,23.470703 C153.739913,22.7513127 153.870432,22.0650624 154.131473,21.4119317 C154.392514,20.758801 154.793393,20.1814042 155.33412,19.6797241 C155.874848,19.1780439 156.550748,18.7757593 157.36184,18.4728581 C158.172931,18.1699569 159.128514,18.0185086 160.228615,18.0185086 C161.216842,18.0185086 162.065213,18.1320948 162.773753,18.3592707 C163.482292,18.5864466 164.074287,18.8514812 164.549755,19.1543824 C165.025223,19.4572836 165.393471,19.7554475 165.654512,20.0488831 C165.915553,20.3423186 166.102008,20.5552928 166.213883,20.6878121 L163.892494,22.9027661 C163.799265,22.8270408 163.650101,22.6897908 163.444998,22.4910118 C163.239894,22.2922329 162.983518,22.0981897 162.675863,21.9088765 C162.368207,21.7195632 161.999958,21.5491839 161.571105,21.3977333 C161.142252,21.2462827 160.657469,21.1705585 160.116741,21.1705585 C159.631951,21.1705585 159.212427,21.2368171 158.858157,21.3693364 C158.503887,21.5018557 158.21022,21.6722351 157.977148,21.8804796 C157.744075,22.0887242 157.571604,22.3206295 157.45973,22.5762024 C157.347855,22.8317753 157.291918,23.0731461 157.291918,23.300322 C157.291918,23.6410858 157.352516,23.9439825 157.473714,24.209021 C157.594911,24.4740596 157.800012,24.7201631 158.089022,24.947339 C158.378031,25.1745149 158.774249,25.3780236 159.277685,25.5578712 C159.781121,25.7377188 160.415068,25.9033654 161.179546,26.054816 C161.906731,26.2062666 162.605938,26.4334391 163.277186,26.7363403 C163.948435,27.0392416 164.54043,27.4320607 165.053189,27.9148095 C165.565948,28.3975583 165.976149,28.9844205 166.283805,29.6754139 C166.59146,30.3664073 166.745286,31.1946404 166.745286,32.160138 C166.745286,32.9931163 166.577476,33.7598235 166.241852,34.4602825 C165.906228,35.1607415 165.44009,35.7760004 164.843425,36.3060775 C164.246759,36.8361546 163.53823,37.2479048 162.717815,37.5413403 C161.897401,37.8347759 161.002416,37.9814914 160.032835,37.9814914 C159.100546,37.9814914 158.256837,37.8679052 157.501682,37.6407293 C156.746528,37.4135534 156.065967,37.124855 155.459979,36.7746255 C154.853991,36.424396 154.331916,36.0410424 153.89374,35.6245532 C153.455564,35.208064 153.087316,34.8105122 152.788983,34.4318857 L155.250215,32.1317411 Z M181.928039,32.1317411 C182.151788,32.3967797 182.417486,32.6760125 182.725142,32.9694481 C183.032797,33.2628836 183.377739,33.5373837 183.759978,33.7929566 C184.142217,34.0485295 184.571063,34.2615037 185.046531,34.4318857 C185.521999,34.6022676 186.058057,34.6874573 186.654722,34.6874573 C187.754824,34.6874573 188.570565,34.4318882 189.10197,33.9207424 C189.633375,33.4095966 189.899073,32.7943378 189.899073,32.0749474 C189.899073,31.6773896 189.824491,31.3224326 189.675325,31.0100657 C189.526158,30.6976988 189.274444,30.4231987 188.920174,30.1865572 C188.565904,29.9499156 188.104428,29.7369414 187.535731,29.5476281 C186.967035,29.3583149 186.263167,29.17847 185.424106,29.008088 C184.5664,28.8377061 183.825241,28.5726715 183.200607,28.2129763 C182.575973,27.8532812 182.05856,27.4273327 181.648353,26.9351183 C181.238146,26.4429038 180.930495,25.8986364 180.725391,25.3022996 C180.520288,24.7059629 180.417737,24.0954368 180.417737,23.470703 C180.417737,22.7513127 180.548256,22.0650624 180.809297,21.4119317 C181.070338,20.758801 181.471216,20.1814042 182.011944,19.6797241 C182.552672,19.1780439 183.228572,18.7757593 184.039663,18.4728581 C184.850755,18.1699569 185.806338,18.0185086 186.906439,18.0185086 C187.894666,18.0185086 188.743036,18.1320948 189.451576,18.3592707 C190.160116,18.5864466 190.752111,18.8514812 191.227579,19.1543824 C191.703046,19.4572836 192.071295,19.7554475 192.332336,20.0488831 C192.593377,20.3423186 192.779832,20.5552928 192.891707,20.6878121 L190.570318,22.9027661 C190.477089,22.8270408 190.327925,22.6897908 190.122821,22.4910118 C189.917718,22.2922329 189.661342,22.0981897 189.353686,21.9088765 C189.046031,21.7195632 188.677782,21.5491839 188.248929,21.3977333 C187.820076,21.2462827 187.335293,21.1705585 186.794565,21.1705585 C186.309774,21.1705585 185.89025,21.2368171 185.53598,21.3693364 C185.18171,21.5018557 184.888044,21.6722351 184.654971,21.8804796 C184.421899,22.0887242 184.249428,22.3206295 184.137553,22.5762024 C184.025679,22.8317753 183.969742,23.0731461 183.969742,23.300322 C183.969742,23.6410858 184.03034,23.9439825 184.151538,24.209021 C184.272735,24.4740596 184.477836,24.7201631 184.766846,24.947339 C185.055855,25.1745149 185.452072,25.3780236 185.955509,25.5578712 C186.458945,25.7377188 187.092892,25.9033654 187.857369,26.054816 C188.584555,26.2062666 189.283762,26.4334391 189.95501,26.7363403 C190.626258,27.0392416 191.218253,27.4320607 191.731013,27.9148095 C192.243772,28.3975583 192.653973,28.9844205 192.961628,29.6754139 C193.269284,30.3664073 193.423109,31.1946404 193.423109,32.160138 C193.423109,32.9931163 193.2553,33.7598235 192.919676,34.4602825 C192.584051,35.1607415 192.117914,35.7760004 191.521248,36.3060775 C190.924583,36.8361546 190.216054,37.2479048 189.395639,37.5413403 C188.575225,37.8347759 187.68024,37.9814914 186.710659,37.9814914 C185.77837,37.9814914 184.934661,37.8679052 184.179506,37.6407293 C183.424352,37.4135534 182.743791,37.124855 182.137803,36.7746255 C181.531814,36.424396 181.00974,36.0410424 180.571564,35.6245532 C180.133388,35.208064 179.765139,34.8105122 179.466807,34.4318857 L181.928039,32.1317411 Z" id="PRESS-Copy" sketch:type="MSShapeGroup"></path>
            </g>
        </g>
    </g>
</svg>